<svg viewBox="244 178 536 690" xmlns="http://www.w3.org/2000/svg" role="img" aria-label="Local Legend">
  <path d="M511.89 198.29C533.08 198.28 546.03 198.77 568.25 199.64C597.28 200.77 626.88 203.95 655.23 207.84C665.41 209.24 675.19 211.30 687.06 213.78Q702.69 217.04 717.42 225.11C732.26 233.24 743.54 246.12 749.13 262.08Q752.70 272.29 753.66 281.77Q754.33 288.32 754.32 307.75Q754.25 517.06 754.43 607.75C754.46 623.67 753.67 638.42 750.45 653.27Q742.61 689.34 721.79 719.52Q708.75 738.42 691.22 755.25Q676.67 769.22 654.38 784.46Q597.85 823.11 532.82 844.56Q524.90 847.17 511.96 847.17Q499.02 847.17 491.11 844.56Q426.07 823.13 369.53 784.49Q347.24 769.26 332.69 755.29Q315.15 738.46 302.11 719.57Q281.28 689.39 273.44 653.32C270.21 638.47 269.42 623.72 269.45 607.80Q269.61 517.11 269.49 307.80Q269.48 288.37 270.15 281.82Q271.10 272.34 274.67 262.13C280.26 246.17 291.53 233.29 306.37 225.15Q321.10 217.08 336.73 213.82C348.60 211.34 358.38 209.27 368.56 207.87C396.91 203.97 426.51 200.79 455.54 199.65C477.75 198.78 490.71 198.29 511.89 198.29Z" fill="#3B6BFF"/>
  <path d="M512.28 268.43C519.86 268.42 525.30 272.22 528.58 279.17Q541.21 306.01 551.77 327.99Q559.95 345.00 561.84 348.60C565.71 355.96 571.33 356.86 578.96 358.03Q616.08 363.74 647.47 368.34C652.35 369.05 657.66 369.71 661.31 372.34C669.13 377.95 670.83 388.17 665.74 396.29Q664.21 398.75 659.34 403.36Q623.25 437.58 606.70 454.20Q600.12 460.81 601.96 470.77Q605.77 491.38 612.78 527.25Q614.06 533.83 614.99 537.70C616.49 543.99 617.52 550.12 615.18 556.46Q612.88 562.68 606.39 565.12C598.22 568.19 591.09 565.77 583.77 561.78Q536.90 536.23 526.56 530.74C522.66 528.67 517.17 525.71 512.34 525.72C507.51 525.72 502.01 528.68 498.11 530.75Q487.78 536.24 440.92 561.81C433.61 565.81 426.48 568.23 418.31 565.16Q411.81 562.73 409.51 556.51C407.17 550.17 408.20 544.04 409.69 537.75Q410.62 533.88 411.90 527.30Q418.89 491.42 422.69 470.81Q424.53 460.85 417.94 454.25Q401.38 437.63 365.28 403.43Q360.41 398.82 358.87 396.36C353.78 388.25 355.48 378.02 363.29 372.41C366.94 369.78 372.25 369.12 377.13 368.40Q408.52 363.79 445.64 358.06C453.27 356.89 458.89 355.99 462.75 348.62Q464.64 345.02 472.81 328.01Q483.36 306.02 495.98 279.18C499.25 272.22 504.70 268.43 512.28 268.43Z" fill="#C6F042"/>
  <path d="M455.10 715.51Q479.11 715.46 493.21 715.41Q501.41 715.39 504.54 716.48C513.71 719.71 515.48 730.85 511.13 738.50C507.69 744.54 501.17 745.05 493.79 745.09Q445.81 745.34 435.88 745.08C423.40 744.75 417.89 736.01 417.89 724.34Q417.89 649.11 417.79 622.72C417.77 616.09 419.01 609.78 424.34 605.46C428.45 602.13 436.40 601.89 440.73 603.66C448.41 606.80 450.37 614.34 450.38 622.14Q450.47 672.28 450.36 710.56C450.35 713.57 452.19 715.52 455.10 715.51Z" fill="#F4EFE6"/>
  <path d="M561.03 710.54C561.02 713.54 562.85 715.49 565.76 715.48Q589.73 715.46 603.81 715.43Q612.00 715.41 615.12 716.51C624.27 719.74 626.03 730.87 621.68 738.50C618.24 744.53 611.73 745.03 604.36 745.06Q556.45 745.26 546.54 744.99C534.08 744.64 528.59 735.91 528.60 724.26Q528.68 649.15 528.61 622.80C528.59 616.18 529.84 609.88 535.17 605.57C539.27 602.25 547.21 602.02 551.53 603.79C559.20 606.94 561.15 614.47 561.15 622.26Q561.18 672.32 561.03 710.54Z" fill="#F4EFE6"/>
</svg>
